<svg xmlns="http://www.w3.org/2000/svg" aria-label="Download CSV" role="img" viewBox="0 0 90.9 128.87"><g><path fill-rule="evenodd" d="m63.85 111.33h-10.8V96.47H37.71v14.86H26.56l18.64 17.54zm20.12-77.38H65.18c-1.98.0-4.73-1.06-6.03-2.36s-2.09-3.65-2.09-5.61V6.95h-49.66c-.16.0-.29.08-.37.16-.14.09-.18.21-.18.38v87.73c0 .12.09.29.16.37.09.13.26.16.38.16h12.96c-1.03 2.16-1.79 4.49-2.23 6.91h-12.85c-1.46.0-2.76-.58-3.73-1.55-.96-.96-1.54-2.26-1.54-3.73v-92.06c0-1.46.59-2.76 1.54-3.73.97-.97 2.31-1.55 3.73-1.55h55.31c.12-.04.24-.04.37-.04.58.0 1.18.25 1.59.62h.08c.09.05.13.09.21.16l27.27 27.6c.46.46.8 1.09.8 1.8.0.21-.04.37-.08.6v66.61c0 1.46-.59 2.77-1.55 3.73-.97.96-2.27 1.55-3.73 1.55H71.57c-.44-2.43-1.19-4.75-2.23-6.91h14.07c.16.0.16-.09.25-.16.13-.09.3-.26.3-.37.0-23.45.01-37.84.01-61.28zm-20.68-8.52v-17.31l19.49 19.74H65.72c-.67.0-1.26-.29-1.72-.71-.42-.42-.71-1.05-.71-1.72z"/><g><polygon points="13.842 25.403 9.7542 31.71 13.524 31.71 15.904 27.856 18.307 31.71 22.161 31.71 17.961 25.664 21.865 19.38 18.061 19.38 15.919 23.192 13.693 19.38 9.9999 19.38"/><rect x="40.699" y="43.744" width="12.942" height="5.7581"/><rect x="9.4938" y="35.176" width="12.942" height="5.7581"/><rect x="40.699" y="35.176" width="12.942" height="5.7581"/><rect x="40.699" y="18.042" width="12.942" height="5.7581"/><rect x="40.699" y="26.609" width="12.942" height="5.7581"/><rect x="9.4938" y="43.744" width="12.942" height="5.7581"/><rect x="25.181" y="26.609" width="12.942" height="5.7581"/><rect x="25.181" y="18.042" width="12.942" height="5.7581"/><rect x="25.181" y="35.176" width="12.942" height="5.7581"/><rect x="25.181" y="43.744" width="12.942" height="5.7581"/></g><rect x="9.494" y="58.51" width="71.912" height="34.549"/><path fill="#fff" d="m31.126 77.403 4.6027 1.462c-.3118 1.3526-.79434 2.4784-1.4625 3.3931-.66814.91473-1.4922 1.5949-2.4795 2.0562-.98736.46128-2.2345.69582-3.7564.69582-1.8485.0-3.363-.28146-4.5285-.84437-1.173-.56291-2.1826-1.5558-3.0363-2.9709-.85373-1.4151-1.2769-3.2289-1.2769-5.4415.0-2.9475.7498-5.2226 2.242-6.8019 1.4996-1.5871 3.6154-2.3767 6.3473-2.3767 2.138.0 3.8307.45346 5.0481 1.3604 1.2175.90691 2.1306 2.3064 2.7319 4.1827l-4.6398 1.0867c-.16332-.54728-.33407-.93819-.51224-1.1962-.28953-.42218-.65329-.74273-1.0764-.96946-.42315-.22673-.9057-.344-1.4254-.344-1.1878.0-2.1009.50037-2.7319 1.5089-.48254.75055-.7201 1.9155-.7201 3.5104.0 1.978.2821 3.3306.86115 4.0655.57163.73491 1.3808 1.1024 2.4127 1.1024 1.0022.0 1.7669-.29709 2.2791-.89128.51966-.602.89085-1.462 1.121-2.5878zm5.9984 1.3838 4.9962-.32836c.10393.85219.32664 1.5011.66071 1.9467.54193.71928 1.314 1.0789 2.3162 1.0789.7498.0 1.3289-.17982 1.7372-.55509.40088-.36746.60875-.79746.60875-1.2822.0-.46128-.19302-.87564-.57905-1.2431-.38604-.36746-1.2843-.71146-2.6948-1.032-2.3014-.54728-3.9494-1.2587-4.9294-2.1578-.98736-.8991-1.4848-2.0484-1.4848-3.44.0-.91473.25241-1.7826.75722-2.5956.50481-.8131 1.2695-1.4542 2.2865-1.9233 1.0171-.46127 2.4127-.69582 4.1796-.69582 2.1752.0 3.8307.42218 4.9739 1.2666 1.1433.84437 1.8188 2.1969 2.0341 4.042l-4.9516.30491c-.13363-.79746-.4083-1.3838-.83146-1.7513-.41573-.35964-1.0022-.54728-1.7446-.54728-.61617.0-1.069.14073-1.3808.40655s-.46027.602-.46027.99291c0 .28146.1262.53164.37861.76618.25241.23455.83146.45346 1.7669.65673 2.2939.516 3.942 1.0476 4.9294 1.5793.99478.53164 1.7149 1.1884 2.1677 1.978.45285.78182.67556 1.6653.67556 2.6347.0 1.1415-.29695 2.1969-.9057 3.1586-.60875.96946-1.4476 1.6966-2.5315 2.1969-1.0839.50037-2.4424.75055-4.0905.75055-2.8953.0-4.8922-.58637-6.0058-1.7513-1.0987-1.1727-1.7297-2.6582-1.8782-4.4564zm16.154-11.923h5.4936l3.8307 12.822 3.7713-12.822h5.3377l-6.3102 17.818h-5.694z"/></g></svg>