<svg 
    xmlns="http://www.w3.org/2000/svg"
    aria-label="Trading card themed around a crash dive"
    role="img"
    viewBox="0 0 100 140"
>
    <g stroke="#000" stroke-linejoin="round" stroke-miterlimit="1">
        <rect
            x="2.2122"
            y="2.2122"
            width="95.576"
            height="135.58"
            fill="#3a6f9b"
            stroke-width="4.4244"
        />
        <rect
            x="10.011"
            y="15.511"
            width="79.979"
            height="81.979"
            ry="2.5714"
            fill="#fff"
        />
        <rect
            x="9.807"
            y="101.29"
            width="80.386"
            height="29.475"
            ry=".92453"
            fill="#fff"
        />
    </g>
    <path
        fill="#8b0000"
        stroke="#000"
        stroke-width=".5"
        d="m11.944 19.299c1.4833 1.175 3.0204 3.3199 3.67 5.1213 0.247 0.6849 0.6396 1.4346 0.8725 1.6658 0.2328 0.2312 1.0827 1.8348 1.8887 3.5634 1.1671 2.503 2.2144 5.4768 5.1438 14.606 3.5491 11.06 4.7561 14.418 5.329 14.824 1.6632 2.4261 3.8981 4.5 5.3751 7.2461 0.2096 0.1406 0.784 0.9822 1.3557 1.7164 0.5718 0.7341 1.8835 2.128 2.915 3.0975 1.0313 0.9695 2.563 2.492 3.4038 3.3833 1.0553 1.1189 1.9517 1.7891 2.8955 2.1647 0.7518 0.2993 2.6258 1.2126 4.1643 2.0297 2.2253 1.1817 3.2663 1.5529 5.091 1.8154 0.8871 0.3788 2.5127 0.3063 3.1899 0.4848 0.3672 0.1028 0.3631 0.2456-0.024 0.8374-0.2568 0.3924-0.6134 0.9397-0.7926 1.2162-0.397 0.6128-0.0632 1.7716 0.742 2.5752 0.3283 0.3278 0.8026 1.0085 1.0541 1.5127 0.3765 0.7551 0.6261 0.9315 1.4158 1.0005 0.9324-0.0928 1.0692 0.2758 1.4003 0.8517 0.2428 0.4223 0.8577 1.0845 1.285 1.4065 2.8667 1.3256 8.8261 0.4795 8.7939-3.5276 4.1039 3.1232 9.8579 4.4175 13.317 7.514 0.8689 0.9122 0.9863 1.2079 1.7989 1.4075 0.5197-0.5736-0.6876-0.7101-0.3354-1.3076 0.9805-0.2943 2.3421 1.0449 2.8278 0.0138 0.139-0.3055 0.1644-0.8327 0.0564-1.1715-0.2023-0.6347-2.1435-2.0657-2.6034-1.9191-5.155-1.5278-9.4967-5.4281-13.218-9.2169-1.7575-5.5508-6.3035-4.0425-8.686-6.5965-1.2622-1.308-2.6439-2.5835-3.0703-2.8344-1.173-0.6902-3.4709-2.2202-4.6446-3.0925-0.5752-0.4276-3.2417-1.8895-5.9254-3.2487s-5.1966-2.7927-5.5843-3.1856c-0.7917-0.8022-1.4759-3.1583-1.3997-4.8197 0.1003-2.1828-2.1633-5.5718-4.8953-7.3292-0.7316-0.4706-1.357-0.9395-1.3896-1.0419-0.0327-0.1024-0.5162-0.7004-1.0745-1.3288s-1.2466-1.4436-1.5295-1.8117c-0.5714-0.743-3.0094-5.5874-5.0585-10.051-1.2307-2.6809-3.2665-5.9107-6.4837-10.287l-1.0725-1.4589c1.8486-1.9406 0.6538-3.7791-1.3447-4.1076-1.2072 0.0898-4.5249-2.5044-4.9702-3.5039-0.3863-0.8981-1.228-1.0162-2.9896-0.4195-1.9527 0.6614-2.1687 1.1946-0.8932 2.2049z"
    />
    <text
        x="11"
        y="13.5"
        fill="#ffffff"
        font-family="Consolas, Menlo, Monaco, 'Courier New', monospace, serif"
        font-style="italic"
        font-weight="bold"
        font-size="8px"
    >
        <tspan>Crash Dive</tspan>
    </text>
    <g
        font-family="Consolas, Menlo, Monaco, 'Courier New', monospace, serif"
        fill="#000000"
        font-size="5.3333px"
    >
        <text x="18.091513" y="110.7018">
            <tspan>Type:</tspan>
        </text>
        <text x="34.243477" y="110.86326">
            <tspan>Trampoline Move</tspan>
        </text>
        <text x="12.328495" y="120.98293">
            <tspan>Effect:</tspan>
        </text>
        <text x="34.178371" y="120.98293">
            <tspan x="34.178371" y="120.98293">Perform 3/4 Front</tspan>
            <tspan x="34.178371" y="125.022">Sommersalt To Back</tspan>
        </text>
    </g>
    <g stroke="#000">
        <circle cx="83.344" cy="17.395" r="9.9837" fill="#fff" stroke-linejoin="round"/>
        <g fill="#8b0000" stroke-width="0.2">
            <path d="m80.434 11.335c0.7256 0.7953 1.4729 1.5706 2.2369 2.329 0.258 0.2355 0.488 0.5059 0.7821 0.699 0.1336 0.0895 0.3043 0.1324 0.4606 0.0802 0.0914-0.0305 0.2207-0.0521 0.2361-0.1684 0.0723-0.1775 0.0508-0.3958-0.0807-0.5405-0.2149-0.2371-0.4956-0.3984-0.7494-0.5889-0.5229-0.3674-1.0694-0.6991-1.5966-1.0598-0.4027-0.2735-0.7869-0.5731-1.1888-0.8476-0.0674-0.0297-0.1331-0.1083-0.213-0.0708-0.0114 0.0742 0.078 0.1121 0.1128 0.1678z"/>
            <path d="m83.956 16.649c-0.1243-0.0848-0.2974-0.0822-0.42 0.0038-0.2809 0.1819-0.3759 0.5416-0.3808 0.8581 0.0376 0.6669 0.06 1.3352 0.1176 2.0008 0.1105 0.8506 0.1948 1.7042 0.3071 2.5546 0.0516 0.3805 0.0342 0.7734 0.1446 1.1442 0.0159-0.0289 0.0478-0.0866 0.0638-0.1155 0.1785-1.5745 0.3261-3.1526 0.4935-4.7283 0.0313-0.4266 0.1006-0.8679-0.0249-1.2858-0.0762-0.157-0.1359-0.3453-0.3009-0.4319z"/>
            <path d="m87.638 22.293c-1.2441 0.5357-2.5502 1.0209-3.9203 1.052-0.9964 0.0247-1.9753-0.2408-2.8887-0.6212-1.6026-0.6642-3.0889-1.5673-4.6209-2.3735v0.3293c0.7961 0.4469 1.6018 0.877 2.4049 1.3112 1.1015 0.5622 2.2098 1.1488 3.4193 1.4426 0.7776 0.2091 1.5962 0.2418 2.3938 0.1493 0.8615-0.1084 1.6989-0.3621 2.5038-0.6823 1.2155-0.4627 2.3771-1.0511 3.5354-1.639v-0.3418c-0.9255 0.4907-1.8652 0.9577-2.8273 1.3734z"/>
            <circle cx="83.954" cy="12.249" r="1.0455"/>
        </g>
    </g>
</svg>
