<svg xmlns="http://www.w3.org/2000/svg" aria-label="Trading card themed around a crash dive" role="img" viewBox="0 0 100 140"><g stroke="#000" stroke-linejoin="round" stroke-miterlimit="1"><rect x="2.2122" y="2.2122" width="95.576" height="135.58" fill="#3a6f9b" stroke-width="4.4244"/><rect x="10.011" y="15.511" width="79.979" height="81.979" ry="2.5714" fill="#fff"/><rect x="9.807" y="101.29" width="80.386" height="29.475" ry=".92453" fill="#fff"/></g><path fill="#8b0000" stroke="#000" stroke-width=".5" d="m11.944 19.299c1.4833 1.175 3.0204 3.3199 3.67 5.1213.247.6849.6396 1.4346.8725 1.6658.2328.2312 1.0827 1.8348 1.8887 3.5634 1.1671 2.503 2.2144 5.4768 5.1438 14.606 3.5491 11.06 4.7561 14.418 5.329 14.824 1.6632 2.4261 3.8981 4.5 5.3751 7.2461.2096.1406.784.9822 1.3557 1.7164.5718.7341 1.8835 2.128 2.915 3.0975 1.0313.9695 2.563 2.492 3.4038 3.3833 1.0553 1.1189 1.9517 1.7891 2.8955 2.1647.7518.2993 2.6258 1.2126 4.1643 2.0297 2.2253 1.1817 3.2663 1.5529 5.091 1.8154.8871.3788 2.5127.3063 3.1899.4848.3672.1028.3631.2456-.024.8374-.2568.3924-.6134.9397-.7926 1.2162-.397.6128-.0632 1.7716.742 2.5752.3283.3278.8026 1.0085 1.0541 1.5127.3765.7551.6261.9315 1.4158 1.0005.9324-.0928 1.0692.2758 1.4003.8517.2428.4223.8577 1.0845 1.285 1.4065 2.8667 1.3256 8.8261.4795 8.7939-3.5276 4.1039 3.1232 9.8579 4.4175 13.317 7.514.8689.9122.9863 1.2079 1.7989 1.4075.5197-.5736-.6876-.7101-.3354-1.3076.9805-.2943 2.3421 1.0449 2.8278.0138.139-.3055.1644-.8327.0564-1.1715-.2023-.6347-2.1435-2.0657-2.6034-1.9191-5.155-1.5278-9.4967-5.4281-13.218-9.2169-1.7575-5.5508-6.3035-4.0425-8.686-6.5965-1.2622-1.308-2.6439-2.5835-3.0703-2.8344-1.173-.6902-3.4709-2.2202-4.6446-3.0925-.5752-.4276-3.2417-1.8895-5.9254-3.2487s-5.1966-2.7927-5.5843-3.1856c-.7917-.8022-1.4759-3.1583-1.3997-4.8197.1003-2.1828-2.1633-5.5718-4.8953-7.3292-.7316-.4706-1.357-.9395-1.3896-1.0419-.0327-.1024-.5162-.7004-1.0745-1.3288s-1.2466-1.4436-1.5295-1.8117c-.5714-.743-3.0094-5.5874-5.0585-10.051-1.2307-2.6809-3.2665-5.9107-6.4837-10.287l-1.0725-1.4589c1.8486-1.9406.6538-3.7791-1.3447-4.1076-1.2072.0898-4.5249-2.5044-4.9702-3.5039-.3863-.8981-1.228-1.0162-2.9896-.4195-1.9527.6614-2.1687 1.1946-.8932 2.2049z"/><text x="11" y="13.5" fill="#fff" font-family="Consolas, Menlo, Monaco, 'Courier New', monospace, serif" font-style="italic" font-weight="bold" font-size="8"><tspan>Crash Dive</tspan></text><g font-family="Consolas, Menlo, Monaco, 'Courier New', monospace, serif" fill="#000" font-size="5.3333"><text x="18.091513" y="110.7018"><tspan>Type:</tspan></text><text x="34.243477" y="110.86326"><tspan>Trampoline Move</tspan></text><text x="12.328495" y="120.98293"><tspan>Effect:</tspan></text><text x="34.178371" y="120.98293"><tspan x="34.178371" y="120.98293">Perform 3/4 Front</tspan><tspan x="34.178371" y="125.022">Sommersalt To Back</tspan></text></g><g stroke="#000"><circle cx="83.344" cy="17.395" r="9.9837" fill="#fff" stroke-linejoin="round"/><g fill="#8b0000" stroke-width=".2"><path d="m80.434 11.335c.7256.7953 1.4729 1.5706 2.2369 2.329.258.2355.488.5059.7821.699.1336.0895.3043.1324.4606.0802.0914-.0305.2207-.0521.2361-.1684.0723-.1775.0508-.3958-.0807-.5405-.2149-.2371-.4956-.3984-.7494-.5889-.5229-.3674-1.0694-.6991-1.5966-1.0598-.4027-.2735-.7869-.5731-1.1888-.8476-.0674-.0297-.1331-.1083-.213-.0708-.0114.0742.078.1121.1128.1678z"/><path d="m83.956 16.649c-.1243-.0848-.2974-.0822-.42.0038-.2809.1819-.3759.5416-.3808.8581.0376.6669.06 1.3352.1176 2.0008.1105.8506.1948 1.7042.3071 2.5546.0516.3805.0342.7734.1446 1.1442.0159-.0289.0478-.0866.0638-.1155.1785-1.5745.3261-3.1526.4935-4.7283.0313-.4266.1006-.8679-.0249-1.2858-.0762-.157-.1359-.3453-.3009-.4319z"/><path d="m87.638 22.293c-1.2441.5357-2.5502 1.0209-3.9203 1.052-.9964.0247-1.9753-.2408-2.8887-.6212-1.6026-.6642-3.0889-1.5673-4.6209-2.3735v.3293c.7961.4469 1.6018.877 2.4049 1.3112 1.1015.5622 2.2098 1.1488 3.4193 1.4426.7776.2091 1.5962.2418 2.3938.1493.8615-.1084 1.6989-.3621 2.5038-.6823 1.2155-.4627 2.3771-1.0511 3.5354-1.639v-.3418c-.9255.4907-1.8652.9577-2.8273 1.3734z"/><circle cx="83.954" cy="12.249" r="1.0455"/></g></g></svg>