<svg
    xmlns="http://www.w3.org/2000/svg"
    aria-label="Download CSV"
    role="img"
    viewBox="0 0 90.9 128.87"
>
    <g>
        <path
            fill-rule="evenodd"
            d="m63.85 111.33h-10.8v-14.86h-15.34v14.86h-11.15l18.64 17.54zm20.12-77.38h-18.79c-1.98 0-4.73-1.06-6.03-2.36s-2.09-3.65-2.09-5.61v-19.03h-49.66c-0.16 0-0.29 0.08-0.37 0.16-0.14 0.09-0.18 0.21-0.18 0.38v87.73c0 0.12 0.09 0.29 0.16 0.37 0.09 0.13 0.26 0.16 0.38 0.16h12.96c-1.03 2.16-1.79 4.49-2.23 6.91h-12.85c-1.46 0-2.76-0.58-3.73-1.55-0.96-0.96-1.54-2.26-1.54-3.73v-92.06c0-1.46 0.59-2.76 1.54-3.73 0.97-0.97 2.31-1.55 3.73-1.55h55.31c0.12-0.04 0.24-0.04 0.37-0.04 0.58 0 1.18 0.25 1.59 0.62h0.08c0.09 0.05 0.13 0.09 0.21 0.16l27.27 27.6c0.46 0.46 0.8 1.09 0.8 1.8 0 0.21-0.04 0.37-0.08 0.6v66.61c0 1.46-0.59 2.77-1.55 3.73-0.97 0.96-2.27 1.55-3.73 1.55h-13.97c-0.44-2.43-1.19-4.75-2.23-6.91h14.07c0.16 0 0.16-0.09 0.25-0.16 0.13-0.09 0.3-0.26 0.3-0.37 0-23.45 0.01-37.84 0.01-61.28zm-20.68-8.52v-17.31l19.49 19.74h-17.06c-0.67 0-1.26-0.29-1.72-0.71-0.42-0.42-0.71-1.05-0.71-1.72z"
        />
        <g>
            <polygon points="13.842 25.403 9.7542 31.71 13.524 31.71 15.904 27.856 18.307 31.71 22.161 31.71 17.961 25.664 21.865 19.38 18.061 19.38 15.919 23.192 13.693 19.38 9.9999 19.38"/>
            <rect x="40.699" y="43.744" width="12.942" height="5.7581"/>
            <rect x="9.4938" y="35.176" width="12.942" height="5.7581"/>
            <rect x="40.699" y="35.176" width="12.942" height="5.7581"/>
            <rect x="40.699" y="18.042" width="12.942" height="5.7581"/>
            <rect x="40.699" y="26.609" width="12.942" height="5.7581"/>
            <rect x="9.4938" y="43.744" width="12.942" height="5.7581"/>
            <rect x="25.181" y="26.609" width="12.942" height="5.7581"/>
            <rect x="25.181" y="18.042" width="12.942" height="5.7581"/>
            <rect x="25.181" y="35.176" width="12.942" height="5.7581"/>
            <rect x="25.181" y="43.744" width="12.942" height="5.7581"/>
        </g>
        <rect x="9.494" y="58.51" width="71.912" height="34.549"/>
        <path 
            fill="#fff"
            d="m31.126 77.403 4.6027 1.462c-0.3118 1.3526-0.79434 2.4784-1.4625 3.3931-0.66814 0.91473-1.4922 1.5949-2.4795 2.0562-0.98736 0.46128-2.2345 0.69582-3.7564 0.69582-1.8485 0-3.363-0.28146-4.5285-0.84437-1.173-0.56291-2.1826-1.5558-3.0363-2.9709-0.85373-1.4151-1.2769-3.2289-1.2769-5.4415 0-2.9475 0.7498-5.2226 2.242-6.8019 1.4996-1.5871 3.6154-2.3767 6.3473-2.3767 2.138 0 3.8307 0.45346 5.0481 1.3604 1.2175 0.90691 2.1306 2.3064 2.7319 4.1827l-4.6398 1.0867c-0.16332-0.54728-0.33407-0.93819-0.51224-1.1962-0.28953-0.42218-0.65329-0.74273-1.0764-0.96946-0.42315-0.22673-0.9057-0.344-1.4254-0.344-1.1878 0-2.1009 0.50037-2.7319 1.5089-0.48254 0.75055-0.7201 1.9155-0.7201 3.5104 0 1.978 0.2821 3.3306 0.86115 4.0655 0.57163 0.73491 1.3808 1.1024 2.4127 1.1024 1.0022 0 1.7669-0.29709 2.2791-0.89128 0.51966-0.602 0.89085-1.462 1.121-2.5878zm5.9984 1.3838 4.9962-0.32836c0.10393 0.85219 0.32664 1.5011 0.66071 1.9467 0.54193 0.71928 1.314 1.0789 2.3162 1.0789 0.7498 0 1.3289-0.17982 1.7372-0.55509 0.40088-0.36746 0.60875-0.79746 0.60875-1.2822 0-0.46128-0.19302-0.87564-0.57905-1.2431-0.38604-0.36746-1.2843-0.71146-2.6948-1.032-2.3014-0.54728-3.9494-1.2587-4.9294-2.1578-0.98736-0.8991-1.4848-2.0484-1.4848-3.44 0-0.91473 0.25241-1.7826 0.75722-2.5956 0.50481-0.8131 1.2695-1.4542 2.2865-1.9233 1.0171-0.46127 2.4127-0.69582 4.1796-0.69582 2.1752 0 3.8307 0.42218 4.9739 1.2666 1.1433 0.84437 1.8188 2.1969 2.0341 4.042l-4.9516 0.30491c-0.13363-0.79746-0.4083-1.3838-0.83146-1.7513-0.41573-0.35964-1.0022-0.54728-1.7446-0.54728-0.61617 0-1.069 0.14073-1.3808 0.40655s-0.46027 0.602-0.46027 0.99291c0 0.28146 0.1262 0.53164 0.37861 0.76618 0.25241 0.23455 0.83146 0.45346 1.7669 0.65673 2.2939 0.516 3.942 1.0476 4.9294 1.5793 0.99478 0.53164 1.7149 1.1884 2.1677 1.978 0.45285 0.78182 0.67556 1.6653 0.67556 2.6347 0 1.1415-0.29695 2.1969-0.9057 3.1586-0.60875 0.96946-1.4476 1.6966-2.5315 2.1969-1.0839 0.50037-2.4424 0.75055-4.0905 0.75055-2.8953 0-4.8922-0.58637-6.0058-1.7513-1.0987-1.1727-1.7297-2.6582-1.8782-4.4564zm16.154-11.923h5.4936l3.8307 12.822 3.7713-12.822h5.3377l-6.3102 17.818h-5.694z"
        />
    </g>
</svg>
